<?xml version="1.0" encoding="UTF-8"?>
<svg width="136px" height="168px" viewBox="0 0 136 168" version="1.1" xmlns="http://www.w3.org/2000/svg" xmlns:xlink="http://www.w3.org/1999/xlink">
    <!-- Generator: Sketch 51.2 (57519) - http://www.bohemiancoding.com/sketch -->
    <title>Path 2</title>
    <desc>Created with Sketch.</desc>
    <defs>
        <linearGradient x1="50%" y1="5.55098788%" x2="50%" y2="100%" id="linearGradient-1">
            <stop stop-color="#E7F1F3" offset="0%"></stop>
            <stop stop-color="#0F566E" offset="100%"></stop>
        </linearGradient>
    </defs>
    <g id="Symbols" stroke="none" stroke-width="1" fill="none" fill-rule="evenodd">
        <g id="LOGO/Mono" transform="translate(-146.000000, 0.000000)" fill="url(#linearGradient-1)">
            <g id="logo" transform="translate(13.000000, 0.000000)">
                <path d="M195,77 C202.209295,83.35968 206.875962,88.0263467 209,91 C211.124038,93.9736533 213.124038,98.64032 215,105 L205,105 L205,99 L133,99 L133,105 L161,105 L161,126 L180,126 L180,135 L172,137 L140,146 L140,168 L260,168 L260,150 C259.304677,147.087231 258.304677,145.087231 257,144 C255.695323,142.912769 252.695323,141.579436 248,140 C270,115.333333 274.333333,93.6666667 261,75 C251.858065,62.2012908 234.524732,54.8679574 209,53 L209,51 L238,34 L240,37 L257,27 L240,0 L225,9 L227,12 L192,32 C184,28 175.666667,29 167,35 C158.333333,41 154,48.3333333 154,57 L140,61 L145,75 L159,71 L151,82 L164,91 L172,80 L172,93 L187,93 L187,80 L195,77 Z" id="Path-2"></path>
            </g>
        </g>
    </g>
</svg>